<svg width="202" height="46" viewBox="0 0 202 46" fill="none" xmlns="http://www.w3.org/2000/svg">
<rect width="202" height="46" rx="23" fill="url(#paint0_linear_474_286)"/>
<path d="M29.364 29.7511C26.3843 29.7511 24.1579 26.7714 24.1579 22.804C24.1579 18.8366 26.468 15.8569 29.5314 15.8569C32.4274 15.8569 34.5869 18.1168 34.5869 21.13H32.9129C32.9129 19.004 31.6239 17.33 29.5314 17.33C27.2548 17.33 25.8319 19.7071 25.8319 22.804C25.8319 25.9009 27.2548 28.278 29.5314 28.278C31.1552 28.278 32.4442 26.6877 32.8125 24.3106H29.0292V22.871H34.5534V29.5H33.0803V26.4701C32.3605 28.4956 30.9878 29.7511 29.364 29.7511ZM40.7037 29.7511C37.9248 29.7511 36.435 27.5247 36.435 24.5617C36.435 21.6992 38.2596 19.5397 40.6869 19.5397C43.3988 19.5397 45.123 22.0005 44.8385 25.2983H38.0922C38.0922 26.6542 39.1469 28.2947 40.7037 28.2947C41.8085 28.2947 42.8129 27.4912 43.2147 26.4701L44.6543 27.1229C44.0852 28.6295 42.294 29.7511 40.7037 29.7511ZM38.042 23.8921H43.2816C43.1142 22.2683 42.227 20.9961 40.6869 20.9961C39.1803 20.9961 38.2094 22.2683 38.042 23.8921ZM51.2831 29.6674C49.2241 29.6674 47.684 28.0101 47.684 25.8172V21.2472H45.7087V19.7908H47.684V17.3635H49.2575V19.7908H52.4047V21.2472H49.2575V25.8172C49.2575 27.1731 50.128 28.1775 51.2831 28.1775C51.5844 28.1775 52.0699 28.1106 52.4047 28.0101V29.5C52.187 29.6004 51.7016 29.6674 51.2831 29.6674ZM59.272 29.5V16.108H60.9125L63.7583 16.0913C66.8217 16.0913 69.1151 18.9705 69.1151 22.804C69.1151 26.6375 66.7548 29.5 63.5909 29.5H60.9125H59.272ZM60.9125 28.0436C60.9125 28.0436 63.1055 28.0771 63.5909 28.0771C66.1187 28.0771 67.4411 25.7837 67.4411 22.804C67.4411 19.8075 65.9847 17.5142 63.2561 17.5142C62.3187 17.5142 61.3143 17.5309 60.9125 17.5644V28.0436ZM74.7231 29.7511C72.2791 29.7511 70.4544 27.5247 70.4544 24.5617C70.4544 21.6992 72.2791 19.5397 74.7231 19.5397C77.1672 19.5397 78.9918 21.6992 78.9918 24.5617C78.9918 27.5247 77.1672 29.7511 74.7231 29.7511ZM72.0447 24.5617C72.0447 26.6709 73.0324 28.2947 74.7231 28.2947C76.4139 28.2947 77.4015 26.6709 77.4015 24.5617C77.4015 22.5529 76.4139 20.9961 74.7231 20.9961C73.0324 20.9961 72.0447 22.5529 72.0447 24.5617ZM84.7645 29.7511C82.2368 29.7511 80.3284 27.5247 80.3284 24.5617C80.3284 21.6992 82.2368 19.5397 84.7645 19.5397C86.8738 19.5397 88.5812 21.2974 88.7486 23.641H87.1583C87.0412 22.1511 86.0033 20.9961 84.7645 20.9961C83.1407 20.9961 81.9187 22.5529 81.9187 24.5617C81.9187 26.6709 83.1407 28.2947 84.7645 28.2947C85.9196 28.2947 86.924 27.1899 87.1081 25.7837H88.7152C88.4641 28.0436 86.7733 29.7511 84.7645 29.7511ZM98.1399 19.7908V29.5H96.5664V27.6921C96.0474 28.8974 94.8924 29.7511 93.7038 29.7511C91.7285 29.7511 90.2554 27.9264 90.2554 25.4824V19.7908H91.8289V25.4824C91.8289 27.0894 92.6157 28.3282 94.0386 28.3282C95.4783 28.3282 96.5664 27.0894 96.5664 25.4824V19.7908H98.1399ZM100.481 29.5V19.7908H102.054V21.582C102.556 20.3934 103.628 19.5397 104.699 19.5397C105.904 19.5397 106.892 20.4102 107.394 21.7494C107.88 20.4604 109.051 19.5397 110.273 19.5397C112.081 19.5397 113.437 21.3644 113.437 23.8084V29.5H111.864V23.8084C111.864 22.2014 111.311 20.9626 109.939 20.9626C108.683 20.9626 107.746 22.2014 107.746 23.8084V29.5H106.172V23.8084C106.172 22.2014 105.703 20.9626 104.364 20.9626C103.042 20.9626 102.054 22.2014 102.054 23.8084V29.5H100.481ZM119.205 29.7511C116.426 29.7511 114.936 27.5247 114.936 24.5617C114.936 21.6992 116.761 19.5397 119.188 19.5397C121.9 19.5397 123.624 22.0005 123.34 25.2983H116.594C116.594 26.6542 117.648 28.2947 119.205 28.2947C120.31 28.2947 121.314 27.4912 121.716 26.4701L123.156 27.1229C122.587 28.6295 120.795 29.7511 119.205 29.7511ZM116.543 23.8921H121.783C121.616 22.2683 120.728 20.9961 119.188 20.9961C117.682 20.9961 116.711 22.2683 116.543 23.8921ZM125.215 29.5V19.7908H126.788V21.5987C127.307 20.3934 128.462 19.5397 129.651 19.5397C131.626 19.5397 133.099 21.3644 133.099 23.8084V29.5H131.525V23.8084C131.525 22.2014 130.739 20.9626 129.316 20.9626C127.876 20.9626 126.788 22.2014 126.788 23.8084V29.5H125.215ZM139.675 29.6674C137.616 29.6674 136.076 28.0101 136.076 25.8172V21.2472H134.1V19.7908H136.076V17.3635H137.649V19.7908H140.796V21.2472H137.649V25.8172C137.649 27.1731 138.52 28.1775 139.675 28.1775C139.976 28.1775 140.462 28.1106 140.796 28.0101V29.5C140.579 29.6004 140.093 29.6674 139.675 29.6674Z" fill="#F6F6F6"/>
<path d="M168.043 15C168.043 19.849 170.023 22.9006 177.036 22.9006C170.023 22.9006 168.043 25.2328 168.043 30.9996" stroke="#F5EDED" stroke-width="2.98693"/>
<path d="M174.115 22.876H155.316" stroke="#F5EDED" stroke-width="2.98693"/>
<defs>
<linearGradient id="paint0_linear_474_286" x1="-21.0783" y1="-6.7317" x2="165.113" y2="109.18" gradientUnits="userSpaceOnUse">
<stop stop-color="#75216A"/>
<stop offset="0.552885" stop-color="#DE0D76"/>
<stop offset="1" stop-color="#EF8D2F"/>
</linearGradient>
</defs>
</svg>
