<svg width="240" height="16" viewBox="0 0 240 16" fill="none" xmlns="http://www.w3.org/2000/svg">
<path d="M8 0C3.584 0 0 3.584 0 8C0 12.416 3.584 16 8 16C12.416 16 16 12.416 16 8C16 3.584 12.416 0 8 0ZM11.712 5.44C11.592 6.704 11.072 9.776 10.808 11.192C10.696 11.792 10.472 11.992 10.264 12.016C9.8 12.056 9.448 11.712 9 11.416C8.296 10.952 7.896 10.664 7.216 10.216C6.424 9.696 6.936 9.408 7.392 8.944C7.512 8.824 9.56 6.96 9.6 6.792C9.60556 6.76655 9.60482 6.74014 9.59785 6.71504C9.59088 6.68995 9.57788 6.66693 9.56 6.648C9.512 6.608 9.448 6.624 9.392 6.632C9.32 6.648 8.2 7.392 6.016 8.864C5.696 9.08 5.408 9.192 5.152 9.184C4.864 9.176 4.32 9.024 3.912 8.888C3.408 8.728 3.016 8.64 3.048 8.36C3.064 8.216 3.264 8.072 3.64 7.92C5.976 6.904 7.528 6.232 8.304 5.912C10.528 4.984 10.984 4.824 11.288 4.824C11.352 4.824 11.504 4.84 11.6 4.92C11.68 4.984 11.704 5.072 11.712 5.136C11.704 5.184 11.72 5.328 11.712 5.44Z" fill="white" fill-opacity="0.6"/>
<path d="M51.2222 0C51.6937 0 52.1459 0.187301 52.4793 0.520699C52.8127 0.854097 53 1.30628 53 1.77778V14.2222C53 14.6937 52.8127 15.1459 52.4793 15.4793C52.1459 15.8127 51.6937 16 51.2222 16H38.7778C38.3063 16 37.8541 15.8127 37.5207 15.4793C37.1873 15.1459 37 14.6937 37 14.2222V1.77778C37 1.30628 37.1873 0.854097 37.5207 0.520699C37.8541 0.187301 38.3063 0 38.7778 0H51.2222ZM50.7778 13.7778V9.06667C50.7778 8.29813 50.4725 7.56107 49.929 7.01763C49.3856 6.47419 48.6485 6.16889 47.88 6.16889C47.1244 6.16889 46.2444 6.63111 45.8178 7.32444V6.33778H43.3378V13.7778H45.8178V9.39556C45.8178 8.71111 46.3689 8.15111 47.0533 8.15111C47.3834 8.15111 47.6999 8.28222 47.9333 8.5156C48.1667 8.74898 48.2978 9.06551 48.2978 9.39556V13.7778H50.7778ZM40.4489 4.94222C40.8449 4.94222 41.2248 4.78489 41.5048 4.50484C41.7849 4.22478 41.9422 3.84495 41.9422 3.44889C41.9422 2.62222 41.2756 1.94667 40.4489 1.94667C40.0505 1.94667 39.6684 2.10494 39.3867 2.38666C39.1049 2.66838 38.9467 3.05047 38.9467 3.44889C38.9467 4.27556 39.6222 4.94222 40.4489 4.94222ZM41.6844 13.7778V6.33778H39.2222V13.7778H41.6844Z" fill="white" fill-opacity="0.6"/>
<path d="M85.1071 2.50667C84.4969 1.81291 84.1606 0.922133 84.1607 0H81.4018V11.0222C81.3809 11.6188 81.1281 12.1841 80.6967 12.5987C80.2653 13.0133 79.6889 13.2448 79.0893 13.2444C77.8214 13.2444 76.7679 12.2133 76.7679 10.9333C76.7679 9.40444 78.25 8.25778 79.7768 8.72889V5.92C76.6964 5.51111 74 7.89333 74 10.9333C74 13.8933 76.4643 16 79.0804 16C81.8839 16 84.1607 13.7333 84.1607 10.9333V5.34222C85.2795 6.14209 86.6226 6.57124 88 6.56889V3.82222C88 3.82222 86.3214 3.90222 85.1071 2.50667Z" fill="white" fill-opacity="0.6"/>
<path d="M113.64 0H120.36C122.92 0 125 2.08 125 4.64V11.36C125 12.5906 124.511 13.7708 123.641 14.641C122.771 15.5111 121.591 16 120.36 16H113.64C111.08 16 109 13.92 109 11.36V4.64C109 3.4094 109.489 2.22919 110.359 1.35902C111.229 0.488856 112.409 0 113.64 0ZM113.48 1.6C112.716 1.6 111.984 1.90343 111.444 2.44353C110.903 2.98364 110.6 3.71618 110.6 4.48V11.52C110.6 13.112 111.888 14.4 113.48 14.4H120.52C121.284 14.4 122.016 14.0966 122.556 13.5565C123.097 13.0164 123.4 12.2838 123.4 11.52V4.48C123.4 2.888 122.112 1.6 120.52 1.6H113.48ZM121.2 2.8C121.465 2.8 121.72 2.90536 121.907 3.09289C122.095 3.28043 122.2 3.53478 122.2 3.8C122.2 4.06522 122.095 4.31957 121.907 4.50711C121.72 4.69464 121.465 4.8 121.2 4.8C120.935 4.8 120.68 4.69464 120.493 4.50711C120.305 4.31957 120.2 4.06522 120.2 3.8C120.2 3.53478 120.305 3.28043 120.493 3.09289C120.68 2.90536 120.935 2.8 121.2 2.8ZM117 4C118.061 4 119.078 4.42143 119.828 5.17157C120.579 5.92172 121 6.93913 121 8C121 9.06087 120.579 10.0783 119.828 10.8284C119.078 11.5786 118.061 12 117 12C115.939 12 114.922 11.5786 114.172 10.8284C113.421 10.0783 113 9.06087 113 8C113 6.93913 113.421 5.92172 114.172 5.17157C114.922 4.42143 115.939 4 117 4ZM117 5.6C116.363 5.6 115.753 5.85286 115.303 6.30294C114.853 6.75303 114.6 7.36348 114.6 8C114.6 8.63652 114.853 9.24697 115.303 9.69706C115.753 10.1471 116.363 10.4 117 10.4C117.637 10.4 118.247 10.1471 118.697 9.69706C119.147 9.24697 119.4 8.63652 119.4 8C119.4 7.36348 119.147 6.75303 118.697 6.30294C118.247 5.85286 117.637 5.6 117 5.6Z" fill="white" fill-opacity="0.6"/>
<path d="M154 11L159.19 8L154 5V11ZM165.56 3.17C165.69 3.64 165.78 4.27 165.84 5.07C165.91 5.87 165.94 6.56 165.94 7.16L166 8C166 10.19 165.84 11.8 165.56 12.83C165.31 13.73 164.73 14.31 163.83 14.56C163.36 14.69 162.5 14.78 161.18 14.84C159.88 14.91 158.69 14.94 157.59 14.94L156 15C151.81 15 149.2 14.84 148.17 14.56C147.27 14.31 146.69 13.73 146.44 12.83C146.31 12.36 146.22 11.73 146.16 10.93C146.09 10.13 146.06 9.44 146.06 8.84L146 8C146 5.81 146.16 4.2 146.44 3.17C146.69 2.27 147.27 1.69 148.17 1.44C148.64 1.31 149.5 1.22 150.82 1.16C152.12 1.09 153.31 1.06 154.41 1.06L156 1C160.19 1 162.8 1.16 163.83 1.44C164.73 1.69 165.31 2.27 165.56 3.17Z" fill="white" fill-opacity="0.6"/>
<path d="M199.6 0.75H202.054L196.694 6.89171L203 15.2506H198.063L194.193 10.182L189.77 15.2506H187.314L193.047 8.67914L187 0.751143H192.063L195.555 5.38314L199.6 0.75ZM198.737 13.7786H200.097L191.32 2.14543H189.862L198.737 13.7786Z" fill="white" fill-opacity="0.6"/>
<path d="M240 8.02005C240 3.59298 236.416 0 232 0C227.584 0 224 3.59298 224 8.02005C224 11.9018 226.752 15.1338 230.4 15.8797V10.4261H228.8V8.02005H230.4V6.01504C230.4 4.46717 231.656 3.20802 233.2 3.20802H235.2V5.61403H233.6C233.16 5.61403 232.8 5.97494 232.8 6.41604V8.02005H235.2V10.4261H232.8V16C236.84 15.599 240 12.1825 240 8.02005Z" fill="white" fill-opacity="0.6"/>
</svg>
