<svg width="85" height="16" viewBox="0 0 85 16" fill="none" xmlns="http://www.w3.org/2000/svg">
<path d="M8.84285 4.81823H11.3185V15.6669H8.88506L8.75845 14.082C8.16648 15.3581 6.53718 15.9745 5.37324 15.9968C2.28457 16.019 0 14.0387 0 10.2315C0 6.42421 2.39008 4.53169 5.43766 4.5539C6.83372 4.5539 8.16759 5.23583 8.75956 6.31426L8.84397 4.81823H8.84285ZM2.58 10.2315C2.58 12.2995 3.95607 13.5323 5.66867 13.5323C9.73136 13.5323 9.73136 6.95287 5.66867 6.95287C3.95496 6.95287 2.58 8.16346 2.58 10.2315Z" fill="white"/>
<path d="M14.1813 15.6677V7.32795H12.2344V4.97341H14.1813V4.24706C14.1813 1.34276 16.0649 0 18.1596 0C19.0692 0 20.021 0.308756 20.8673 0.880732L19.9155 2.8832C19.3657 2.50892 18.8571 2.31123 18.3284 2.31123C17.4388 2.31123 16.7624 2.92763 16.7624 4.24706V4.97341H19.83V7.32795H16.7624V15.6677H14.1813Z" fill="white"/>
<path d="M35.5933 1.75948C35.5933 3.84969 32.5469 3.84969 32.5469 1.75948C32.5469 -0.33073 35.5933 -0.33184 35.5933 1.75948ZM32.779 4.77374V15.6657H35.3601V4.77485H32.779V4.77374Z" fill="white"/>
<path d="M46.4258 4.79688L48.7104 12.9611L51.1016 4.79688H53.9581L50.3186 15.7122H47.3143L46.2359 12.4991L45.3041 8.86845L44.3733 12.4991L43.2938 15.7122H40.2896L36.6289 4.79688H39.5066L41.8966 12.9611L44.1601 4.79688H46.4236H46.4258Z" fill="white"/>
<path d="M65.655 10.254C65.655 13.3782 63.6025 15.9093 60.2173 15.9093C56.8321 15.9093 54.8008 13.3782 54.8008 10.254C54.8008 7.12976 56.8743 4.59863 60.1962 4.59863C63.5181 4.59863 65.655 7.15087 65.655 10.254ZM57.3819 10.254C57.3819 11.9044 58.3337 13.4448 60.2173 13.4448C62.101 13.4448 63.0517 11.9044 63.0517 10.254C63.0517 8.60357 61.951 7.04091 60.2173 7.04091C58.3559 7.04091 57.3819 8.62579 57.3819 10.254Z" fill="white"/>
<path d="M68.9788 4.81877L69.1698 6.07267C69.9739 4.72992 71.0524 4.53223 72.1108 4.53223C73.1692 4.53223 74.2265 4.97204 74.7974 5.56623L73.6346 7.89855C73.1048 7.43653 72.6184 7.19441 71.7732 7.19441C70.4193 7.19441 69.171 7.94298 69.171 9.94545V15.6663H66.5898V4.81877H68.9799H68.9788Z" fill="white"/>
<path d="M77.4405 0.286133V9.17675L80.9523 4.81973H84.041V4.97411L79.7884 9.92531L84.6329 15.4707V15.6684H81.5232L77.4405 10.7616V15.6684H74.8594V0.286133H77.4405Z" fill="white"/>
<path d="M32.1337 2.11532C31.9682 1.85432 31.7261 1.68439 31.4496 1.63553C29.2772 1.25014 27.0104 1.85099 25.1967 3.28815C24.6214 2.48405 23.945 1.68106 23.1853 0.895844C22.6678 0.36163 21.9781 0.489352 21.5638 0.891401C21.1373 1.30456 20.983 2.00981 21.5138 2.55735C22.3324 3.40254 23.0032 4.21664 23.5574 5.04184C22.5434 6.49899 21.9459 8.30043 21.8281 10.2629C21.7315 11.89 21.9092 13.2228 22.3579 14.2245C22.69 14.9676 23.3253 15.5529 24.0561 15.7916C24.2949 15.8694 24.5336 15.9083 24.7691 15.9083C25.1445 15.9083 25.511 15.8094 25.8542 15.6139C26.7527 15.1019 27.328 14.0868 27.6123 12.5097C27.85 11.1936 27.8278 9.82089 27.5457 8.43149C27.3358 7.39527 26.9637 6.34905 26.4384 5.31727C27.7378 4.17554 29.3793 3.65354 30.8665 3.91565C31.5306 4.03671 32.1293 3.68464 32.2936 3.08712C32.3792 2.77726 32.317 2.40408 32.1326 2.1131L32.1337 2.11532ZM25.0245 13.085C24.8713 13.4427 24.7713 13.5404 24.7436 13.5559C24.6902 13.5415 24.557 13.3971 24.4814 13.2272C24.1605 12.5008 24.1427 11.5313 24.1705 10.5928C24.2027 9.50547 24.4348 8.45814 24.8446 7.52965C25.2544 8.66694 25.8975 11.0526 25.0245 13.085Z" fill="white"/>
<path d="M8.84285 4.81823H11.3185V15.6669H8.88506L8.75845 14.082C8.16648 15.3581 6.53718 15.9745 5.37324 15.9968C2.28457 16.019 0 14.0387 0 10.2315C0 6.42421 2.39008 4.53169 5.43766 4.5539C6.83372 4.5539 8.16759 5.23583 8.75956 6.31426L8.84397 4.81823H8.84285ZM2.58 10.2315C2.58 12.2995 3.95607 13.5323 5.66867 13.5323C9.73136 13.5323 9.73136 6.95287 5.66867 6.95287C3.95496 6.95287 2.58 8.16346 2.58 10.2315Z" fill="url(#paint0_linear_1_53949)"/>
<path d="M14.1813 15.6677V7.32795H12.2344V4.97341H14.1813V4.24706C14.1813 1.34276 16.0649 0 18.1596 0C19.0692 0 20.021 0.308756 20.8673 0.880732L19.9155 2.8832C19.3657 2.50892 18.8571 2.31123 18.3284 2.31123C17.4388 2.31123 16.7624 2.92763 16.7624 4.24706V4.97341H19.83V7.32795H16.7624V15.6677H14.1813Z" fill="url(#paint1_linear_1_53949)"/>
<path d="M35.5933 1.75948C35.5933 3.84969 32.5469 3.84969 32.5469 1.75948C32.5469 -0.33073 35.5933 -0.33184 35.5933 1.75948ZM32.779 4.77374V15.6657H35.3601V4.77485H32.779V4.77374Z" fill="url(#paint2_linear_1_53949)"/>
<path d="M46.4258 4.79688L48.7104 12.9611L51.1016 4.79688H53.9581L50.3186 15.7122H47.3143L46.2359 12.4991L45.3041 8.86845L44.3733 12.4991L43.2938 15.7122H40.2896L36.6289 4.79688H39.5066L41.8966 12.9611L44.1601 4.79688H46.4236H46.4258Z" fill="url(#paint3_linear_1_53949)"/>
<path d="M65.655 10.254C65.655 13.3782 63.6025 15.9093 60.2173 15.9093C56.8321 15.9093 54.8008 13.3782 54.8008 10.254C54.8008 7.12976 56.8743 4.59863 60.1962 4.59863C63.5181 4.59863 65.655 7.15087 65.655 10.254ZM57.3819 10.254C57.3819 11.9044 58.3337 13.4448 60.2173 13.4448C62.101 13.4448 63.0517 11.9044 63.0517 10.254C63.0517 8.60357 61.951 7.04091 60.2173 7.04091C58.3559 7.04091 57.3819 8.62579 57.3819 10.254Z" fill="url(#paint4_linear_1_53949)"/>
<path d="M68.9788 4.81877L69.1698 6.07267C69.9739 4.72992 71.0524 4.53223 72.1108 4.53223C73.1692 4.53223 74.2265 4.97204 74.7974 5.56623L73.6346 7.89855C73.1048 7.43653 72.6184 7.19441 71.7732 7.19441C70.4193 7.19441 69.171 7.94298 69.171 9.94545V15.6663H66.5898V4.81877H68.9799H68.9788Z" fill="url(#paint5_linear_1_53949)"/>
<path d="M77.4405 0.286133V9.17675L80.9523 4.81973H84.041V4.97411L79.7884 9.92531L84.6329 15.4707V15.6684H81.5232L77.4405 10.7616V15.6684H74.8594V0.286133H77.4405Z" fill="url(#paint6_linear_1_53949)"/>
<path d="M32.1337 2.11532C31.9682 1.85432 31.7261 1.68439 31.4496 1.63553C29.2772 1.25014 27.0104 1.85099 25.1967 3.28815C24.6214 2.48405 23.945 1.68106 23.1853 0.895844C22.6678 0.36163 21.9781 0.489352 21.5638 0.891401C21.1373 1.30456 20.983 2.00981 21.5138 2.55735C22.3324 3.40254 23.0032 4.21664 23.5574 5.04184C22.5434 6.49899 21.9459 8.30043 21.8281 10.2629C21.7315 11.89 21.9092 13.2228 22.3579 14.2245C22.69 14.9676 23.3253 15.5529 24.0561 15.7916C24.2949 15.8694 24.5336 15.9083 24.7691 15.9083C25.1445 15.9083 25.511 15.8094 25.8542 15.6139C26.7527 15.1019 27.328 14.0868 27.6123 12.5097C27.85 11.1936 27.8278 9.82089 27.5457 8.43149C27.3358 7.39527 26.9637 6.34905 26.4384 5.31727C27.7378 4.17554 29.3793 3.65354 30.8665 3.91565C31.5306 4.03671 32.1293 3.68464 32.2936 3.08712C32.3792 2.77726 32.317 2.40408 32.1326 2.1131L32.1337 2.11532ZM25.0245 13.085C24.8713 13.4427 24.7713 13.5404 24.7436 13.5559C24.6902 13.5415 24.557 13.3971 24.4814 13.2272C24.1605 12.5008 24.1427 11.5313 24.1705 10.5928C24.2027 9.50547 24.4348 8.45814 24.8446 7.52965C25.2544 8.66694 25.8975 11.0526 25.0245 13.085Z" fill="url(#paint7_linear_1_53949)"/>
<defs>
<linearGradient id="paint0_linear_1_53949" x1="-0.00111063" y1="7.99798" x2="84.6346" y2="7.99798" gradientUnits="userSpaceOnUse">
<stop stop-color="#EF8D2F"/>
<stop offset="0.66" stop-color="#E3355F"/>
<stop offset="1" stop-color="#DE0D76"/>
</linearGradient>
<linearGradient id="paint1_linear_1_53949" x1="-0.00257432" y1="7.99878" x2="84.6332" y2="7.99878" gradientUnits="userSpaceOnUse">
<stop stop-color="#EF8D2F"/>
<stop offset="0.66" stop-color="#E3355F"/>
<stop offset="1" stop-color="#DE0D76"/>
</linearGradient>
<linearGradient id="paint2_linear_1_53949" x1="0.000909203" y1="7.9979" x2="84.6366" y2="7.9979" gradientUnits="userSpaceOnUse">
<stop stop-color="#EF8D2F"/>
<stop offset="0.66" stop-color="#E3355F"/>
<stop offset="1" stop-color="#DE0D76"/>
</linearGradient>
<linearGradient id="paint3_linear_1_53949" x1="0.000242756" y1="7.99883" x2="84.636" y2="7.99883" gradientUnits="userSpaceOnUse">
<stop stop-color="#EF8D2F"/>
<stop offset="0.66" stop-color="#E3355F"/>
<stop offset="1" stop-color="#DE0D76"/>
</linearGradient>
<linearGradient id="paint4_linear_1_53949" x1="-0.00225682" y1="7.99828" x2="84.6335" y2="7.99828" gradientUnits="userSpaceOnUse">
<stop stop-color="#EF8D2F"/>
<stop offset="0.66" stop-color="#E3355F"/>
<stop offset="1" stop-color="#DE0D76"/>
</linearGradient>
<linearGradient id="paint5_linear_1_53949" x1="-0.000323121" y1="7.99851" x2="84.6354" y2="7.99851" gradientUnits="userSpaceOnUse">
<stop stop-color="#EF8D2F"/>
<stop offset="0.66" stop-color="#E3355F"/>
<stop offset="1" stop-color="#DE0D76"/>
</linearGradient>
<linearGradient id="paint6_linear_1_53949" x1="-0.00170162" y1="7.99836" x2="84.6341" y2="7.99836" gradientUnits="userSpaceOnUse">
<stop stop-color="#EF8D2F"/>
<stop offset="0.66" stop-color="#E3355F"/>
<stop offset="1" stop-color="#DE0D76"/>
</linearGradient>
<linearGradient id="paint7_linear_1_53949" x1="-0.000227812" y1="7.99834" x2="84.6355" y2="7.99834" gradientUnits="userSpaceOnUse">
<stop stop-color="#EF8D2F"/>
<stop offset="0.66" stop-color="#E3355F"/>
<stop offset="1" stop-color="#DE0D76"/>
</linearGradient>
</defs>
</svg>
